<svg xmlns="http://www.w3.org/2000/svg" version="1.1" xmlns:xlink="http://www.w3.org/1999/xlink" xmlns:svgjs="http://svgjs.dev/svgjs" viewBox="0 0 1920 1080" class="overflow-hidden rounded-md drop-shadow-lg transition duration-300 w-85screen rotate-90" style="overflow: hidden; height: 85vh;"><rect width="1920" height="1080" fill="#4287a8"/><g clip-path="url(&quot;#SvgjsClipPath1047&quot;)"><g transform="matrix(1.15,0,0,1.15,-139.34597969055176,-81)"><path d="M0,-1080C-9.917399530403566,-992.4685544155102,-51.7781329623013,-730.6221735824829,-59.5043971824214,-554.8113264930608C-67.2306614025415,-379.0004794036388,-55.808211068738494,-216.77332725340054,-46.3575853207206,-25.134917463467332C-36.90695957270271,166.50349232646587,-18.551568814456473,403.3513496675488,-2.800642694314064,595.0191322465384C12.950283425828346,786.6869148255281,51.949211996703106,962.8154205282104,48.147971400133855,1124.8717780104707C44.346730803564604,1286.9281354927311,-17.583424373707246,1394.8359068085122,-25.608086273729555,1567.3572771401005C-33.632748173751864,1739.8786474716887,-4.268014378954926,2061.2262128566836,0,2160L 1920 2160 L 1920 -1080 Z" fill="url(&quot;#SvgjsLinearGradient1043&quot;)"/><path d="M480,-1080C475.3134501092937,-997.8689500970896,461.6467402771734,-743.2185594281996,451.88070065576204,-587.2137005825377C442.11466103435066,-431.2088417368759,410.67182170642013,-297.18940409066204,421.4037622715319,-143.9708469260289C432.13570283664365,9.247710238604185,506.7274574173693,182.8780740183519,516.2723440464325,332.0976424052608C525.8172306754957,481.3172107921697,494.0077864137816,611.2808291899445,478.67308204591114,751.3465633954244C463.3383776780407,891.4122976009043,418.8560175526281,1021.003559239392,424.2641178392097,1172.49204763814C429.6722181257913,1323.9805360368882,501.8323700719358,1495.6928350609362,511.12168376540086,1660.2774937879128C520.410997458866,1824.8621525148894,485.1869472942335,2076.712915631319,480,2160L 1920 2160 L 1920 -1080 Z" fill="url(&quot;#SvgjsLinearGradient1044&quot;)"/><path d="M960,-1080C953.3424781428462,-1021.1685491891724,910.2470028962459,-861.3520940928279,920.0548688570774,-727.011295135034C929.8627348179089,-592.67049617724,1003.2439611130404,-423.71599063338783,1018.847195764989,-273.9552062532366C1034.4504304169375,-124.19442187308536,1024.0642264788107,39.43822434520902,1013.6742767687688,171.55341114587355C1003.2843270587268,303.66859794653806,964.5721890491255,390.3479514561117,956.5074975047372,518.7359145507506C948.4428059603489,647.1238776453896,965.8584614125184,799.2143963151675,965.286127502439,941.8811897137076C964.7137935923595,1084.5479831122477,956.4703497595249,1249.5893534293912,953.0734940442605,1374.7366749419914C949.6766383289962,1499.8839964545916,943.7505755515626,1561.8878979463082,944.9049932108526,1692.7651187893096C946.0594108701425,1823.642339632311,957.4841655351421,2082.127519798218,960,2160L 1920 2160 L 1920 -1080 Z" fill="url(&quot;#SvgjsLinearGradient1045&quot;)"/><path d="M1440,-1080C1448.5699029534996,-942.6236154765934,1489.6700536759845,-530.0230286415891,1491.4194177209984,-255.74169285956035C1493.1687817660122,18.539642922468403,1454.55308587988,289.0044336536674,1450.4961842700832,565.6880146921725C1446.4392826602864,842.3715957306777,1468.8273721072314,1138.641129153499,1467.0780080622176,1404.3597933714702C1465.3286440172037,1670.0784575894415,1444.5130013437029,2034.0599655619117,1440,2160L 1920 2160 L 1920 -1080 Z" fill="url(&quot;#SvgjsLinearGradient1046&quot;)"/></g></g><defs><linearGradient x1="0.1" y1="0" x2="0" y2="1" id="SvgjsLinearGradient1043"><stop stop-color="#4287a8" offset="0"/><stop stop-color="#4298a8" offset="0"/></linearGradient><linearGradient x1="0.1" y1="0" x2="0" y2="1" id="SvgjsLinearGradient1044"><stop stop-color="#6aa7c4" offset="0"/><stop stop-color="#6ab6c4" offset="0.25"/></linearGradient><linearGradient x1="0.1" y1="0" x2="0" y2="1" id="SvgjsLinearGradient1045"><stop stop-color="#9bc4d8" offset="0"/><stop stop-color="#9bced8" offset="0.5"/></linearGradient><linearGradient x1="0.1" y1="0" x2="0" y2="1" id="SvgjsLinearGradient1046"><stop stop-color="#cce1eb" offset="0"/><stop stop-color="#cce6eb" offset="0.75"/></linearGradient><clipPath id="SvgjsClipPath1047"><rect width="1920" height="1080"/></clipPath></defs></svg>